<?xml version="1.0" standalone="no"?><!DOCTYPE svg PUBLIC "-//W3C//DTD SVG 1.1//EN" "http://www.w3.org/Graphics/SVG/1.1/DTD/svg11.dtd"><svg t="1565028722235" class="icon" viewBox="0 0 1024 1024" version="1.1" xmlns="http://www.w3.org/2000/svg" p-id="4265" xmlns:xlink="http://www.w3.org/1999/xlink" width="200" height="200"><defs><style type="text/css"></style></defs><path d="M596.83 512.32a32 32 0 0 0-32-32H245a32 32 0 1 0 0 64h319.83a32 32 0 0 0 32-32zM245 669.32a32 32 0 0 0 0 64h137a32 32 0 1 0 0-64zM771 293a32 32 0 0 0-32-32H245a32 32 0 0 0 0 64h494a32 32 0 0 0 32-32z" fill="#ffffff" p-id="4266"></path><path d="M431 911H176.38a29.53 29.53 0 0 1-29.5-29.5v-738a29.53 29.53 0 0 1 29.5-29.5h653.71A37 37 0 0 1 867 150.91V437a32 32 0 0 0 64 0V150.91A101 101 0 0 0 830.09 50H176.38a93.6 93.6 0 0 0-93.5 93.5v738a93.6 93.6 0 0 0 93.5 93.5H431a32 32 0 0 0 0-64z" fill="#ffffff" p-id="4267"></path><path d="M950 667.53a32 32 0 0 0-32 32v60.73a82.21 82.21 0 0 1-82.12 82.12H651.29L700 790.05a32 32 0 1 0-46.86-43.6l-124 133.23 125.31 119.7a32 32 0 1 0 44.2-46.28l-48.9-46.72h186.13c80.57 0 146.12-65.54 146.12-146.12v-60.73a32 32 0 0 0-32-32z" fill="#ffffff" p-id="4268"></path><path d="M550 787.11v-60.73a82.21 82.21 0 0 1 82.12-82.12h180.45l-48.71 52.33a32 32 0 0 0 46.86 43.6L934.7 607 809.39 487.27a32 32 0 1 0-44.2 46.27l48.9 46.72h-182c-80.54 0-146.09 65.55-146.09 146.12v60.73a32 32 0 1 0 64 0z" fill="#ffffff" p-id="4269"></path></svg>