<?xml version="1.0" standalone="no"?><!DOCTYPE svg PUBLIC "-//W3C//DTD SVG 1.1//EN" "http://www.w3.org/Graphics/SVG/1.1/DTD/svg11.dtd"><svg t="1565028640494" class="icon" viewBox="0 0 1024 1024" version="1.1" xmlns="http://www.w3.org/2000/svg" p-id="2994" xmlns:xlink="http://www.w3.org/1999/xlink" width="200" height="200"><defs><style type="text/css"></style></defs><path d="M277.45537109 410.69814453h347.36835938v28.940625h-347.36835938v-28.940625z" p-id="2995" fill="#ffffff"></path><path d="M528.53779297 873.83867187h-337.91748047v-521.03408203h202.62568359v-202.62568359h318.41367188v434.20517578c20.11552734 0 39.54023438 2.94345703 57.88300781 8.40146485v-500.50283204h-434.19199219l-202.62568359 202.6256836v636.74121094l437.11699219 0.06503906c-16.95498047-16.61572266-30.99990234-36.1828125-41.30419922-57.87685547z" p-id="2996" fill="#ffffff"></path><path d="M277.45537109 468.59433594h347.36835938v28.940625h-347.36835938v-28.940625z" p-id="2997" fill="#ffffff"></path><path d="M277.45537109 526.48876953h347.36835938v28.940625h-347.36835938v-28.940625z" p-id="2998" fill="#ffffff"></path><path d="M277.45537109 584.38320312h202.6265625v28.940625h-202.6265625v-28.940625z" p-id="2999" fill="#ffffff"></path><path d="M711.65966797 721.88105469c-19.97753906 0-36.18457031 16.21494141-36.18457031 36.19335937 0 19.96699219 16.20791016 36.18632813 36.18457031 36.18632813 19.96611328 0 36.18544922-16.21933594 36.18544922-36.18632813 0-19.97841797-16.21933594-36.19335938-36.18544922-36.19335937z" p-id="3000" fill="#ffffff"></path><path d="M711.65966797 613.32470703c-119.89951172 0-217.11269531 144.74794922-217.11269531 144.74794922s97.21318359 144.74179688 217.11269531 144.74179688c119.90039063 0 217.11269531-144.74179688 217.11269531-144.74179688s-97.21318359-144.74794922-217.11269531-144.74794922M711.65966797 848.53759766c-49.95527344 0-90.4640625-40.51845703-90.4640625-90.4640625 0-49.97373047 40.50878906-90.46933594 90.4640625-90.46933594 49.95615234 0 90.46494141 40.49648438 90.46494141 90.46933594 0 49.94472656-40.50878906 90.4640625-90.46494141 90.4640625z" p-id="3001" fill="#ffffff"></path></svg>