<?xml version="1.0" standalone="no"?><!DOCTYPE svg PUBLIC "-//W3C//DTD SVG 1.1//EN" "http://www.w3.org/Graphics/SVG/1.1/DTD/svg11.dtd"><svg t="1551680779017" class="icon" style="" viewBox="0 0 1024 1024" version="1.1" xmlns="http://www.w3.org/2000/svg" p-id="8755" xmlns:xlink="http://www.w3.org/1999/xlink" width="128" height="128"><defs><style type="text/css"></style></defs><path d="M912.492745 490.895676H500.951253c-7.750812 0-14.023133-6.272321-14.023133-14.023134 0-7.750812 6.272321-14.023133 14.023133-14.023133h411.541492c7.750812 0 14.023133 6.272321 14.023133 14.023133-0.001024 7.750812-6.272321 14.023133-14.023133 14.023134z" p-id="8756" fill="#e6e6e6"></path><path d="M794.708049 607.118947a13.987297 13.987297 0 0 1-9.982882-4.176429c-5.436831-5.505431-5.381541-14.392756 0.1372-19.829587l107.664614-106.240389-107.665637-106.227078c-5.518742-5.436831-5.574032-14.324156-0.137201-19.829587 5.436831-5.518742 14.337466-5.574032 19.829587-0.137201l117.784696 116.20996a14.019038 14.019038 0 0 1 0 19.965764L804.55373 603.078695a13.944294 13.944294 0 0 1-9.845681 4.040252zM639.702049 773.778809H362.187147c-7.750812 0-14.023133-6.272321-14.023133-14.023134s6.272321-14.023133 14.023133-14.023133H625.678916V561.010319c0-7.750812 6.272321-14.023133 14.023133-14.023134 7.750812 0 14.023133 6.272321 14.023134 14.023134v198.745356c0 7.750812-6.272321 14.023133-14.023134 14.023134zM639.702049 406.757899c-7.750812 0-14.023133-6.272321-14.023133-14.023133V129.74982H109.911018c-7.750812 0-14.023133-6.272321-14.023133-14.023133 0-7.750812 6.272321-14.023133 14.023133-14.023134h529.791031c7.750812 0 14.023133 6.272321 14.023134 14.023134V392.734766c0 7.750812-6.272321 14.023133-14.023134 14.023133z" p-id="8757" fill="#e6e6e6"></path><path d="M362.187147 922.416241c-2.492137 0-4.984274-0.670645-7.203033-1.985313L102.706961 769.437535a14.031324 14.031324 0 0 1-6.8201-12.036796V115.726687a14.01699 14.01699 0 0 1 7.107812-12.201642c4.39554-2.492137 9.778105-2.396916 14.118354 0.163822L369.39018 254.68226a14.031324 14.031324 0 0 1 6.8201 12.036795v641.674053a14.01699 14.01699 0 0 1-14.023133 14.023133zM123.933127 749.443102l224.230887 134.218056V274.675668l-224.230887-134.218055v608.985489z" p-id="8758" fill="#e6e6e6"></path></svg>