<?xml version="1.0" standalone="no"?><!DOCTYPE svg PUBLIC "-//W3C//DTD SVG 1.1//EN" "http://www.w3.org/Graphics/SVG/1.1/DTD/svg11.dtd"><svg t="1565028593851" class="icon" viewBox="0 0 1024 1024" version="1.1" xmlns="http://www.w3.org/2000/svg" p-id="2594" xmlns:xlink="http://www.w3.org/1999/xlink" width="200" height="200"><defs><style type="text/css"></style></defs><path d="M788.85546875 160.98681641C719.64160156 131.32373047 620.76464844 116.4921875 512 116.4921875 403.23535156 116.4921875 304.35839844 131.32373047 235.14453125 160.98681641 156.04296875 195.59375 116.4921875 235.14453125 116.4921875 279.63916016l0 459.77783203c0 44.49462891 39.55078125 88.98925781 118.65234375 118.65234375C304.35839844 892.67626953 403.23535156 907.5078125 512 907.5078125c108.76464844 0 207.64160156-14.83154297 276.85546875-44.49462891 74.15771484-29.66308594 118.65234375-74.15771484 118.65234375-118.65234375L907.5078125 279.63916016C907.5078125 235.14453125 867.95703125 195.59375 788.85546875 160.98681641L788.85546875 160.98681641zM744.36083984 363.68457031C680.09082031 388.40380859 591.1015625 398.29150391 512 398.29150391 427.95458984 398.29150391 343.90917969 388.40380859 279.63916016 363.68457031 205.48144531 343.90917969 170.87451172 314.24609375 170.87451172 279.63916016c0-29.66308594 39.55078125-59.32617188 108.76464844-84.04541016C343.90917969 175.81835937 427.95458984 165.93066406 512 165.93066406c79.1015625 0 168.09082031 14.83154297 232.36083984 34.6069336 69.21386719 24.71923828 108.76464844 54.38232422 108.76464844 84.04541015C853.12548828 314.24609375 818.51855469 343.90917969 744.36083984 363.68457031L744.36083984 363.68457031zM749.3046875 507.05615234C685.03466797 526.83154297 596.04541016 541.66308594 512 541.66308594c-84.04541016 0-168.09082031-14.83154297-237.3046875-34.6069336C205.48144531 482.33691406 165.93066406 452.67382812 165.93066406 423.01074219L165.93066406 368.62841797C215.36914062 388.40380859 249.97607422 413.12304687 304.35839844 423.01074219 368.62841797 437.84228516 437.84228516 447.72998047 512 447.72998047c74.15771484 0 143.37158203-9.88769531 207.64160156-24.71923828C774.02392578 413.12304687 808.63085938 388.40380859 858.06933594 368.62841797l0 59.32617187C858.06933594 452.67382812 818.51855469 482.33691406 749.3046875 507.05615234L749.3046875 507.05615234zM749.3046875 665.25927734c-64.27001953 19.77539063-153.25927734 34.60693359-237.3046875 34.6069336-84.04541016 0-168.09082031-14.83154297-237.3046875-34.6069336C205.48144531 645.48388672 165.93066406 615.82080078 165.93066406 581.21386719L165.93066406 507.05615234c49.43847656 24.71923828 84.04541016 44.49462891 138.42773438 59.32617188C368.62841797 581.21386719 437.84228516 591.1015625 512 591.1015625c74.15771484 0 143.37158203-9.88769531 207.64160156-24.71923828C774.02392578 551.55078125 808.63085938 531.77539063 858.06933594 507.05615234l0 74.15771485C858.06933594 615.82080078 818.51855469 645.48388672 749.3046875 665.25927734L749.3046875 665.25927734zM512 858.06933594c-84.04541016 0-168.09082031-14.83154297-237.3046875-34.6069336C205.48144531 803.68701172 165.93066406 774.02392578 165.93066406 744.36083984l0-74.15771484c49.43847656 24.71923828 84.04541016 44.49462891 138.42773438 59.32617187 59.32617188 14.83154297 133.48388672 24.71923828 202.6977539 24.71923829 74.15771484 0 143.37158203-9.88769531 207.64160157-24.71923829 59.32617188-14.83154297 93.93310547-34.60693359 143.37158203-59.32617187l0 74.15771484c0 29.66308594-39.55078125 59.32617188-108.76464844 84.04541016C685.03466797 848.18164063 591.1015625 858.06933594 512 858.06933594L512 858.06933594zM512 858.06933594" fill="#ffffff" p-id="2595"></path></svg>