<?xml version="1.0" standalone="no"?><!DOCTYPE svg PUBLIC "-//W3C//DTD SVG 1.1//EN" "http://www.w3.org/Graphics/SVG/1.1/DTD/svg11.dtd"><svg t="1550132775863" class="icon" style="" viewBox="0 0 1024 1024" version="1.1" xmlns="http://www.w3.org/2000/svg" p-id="9314" xmlns:xlink="http://www.w3.org/1999/xlink" width="128" height="128"><defs><style type="text/css"></style></defs><path d="M896 768h-76.8v-332.8c0-161.28-122.88-291.84-281.6-304.64V102.4c0-12.8-12.8-25.6-25.6-25.6s-25.6 12.8-25.6 25.6v28.16c-158.72 12.8-281.6 145.92-281.6 304.64v332.8h-76.8c-12.8 0-25.6 10.24-25.6 25.6 0 12.8 12.8 25.6 25.6 25.6h256c0 71.68 56.32 128 128 128s128-56.32 128-128h256c12.8 0 25.6-12.8 25.6-25.6 0-15.36-12.8-25.6-25.6-25.6z m-384 128c-43.52 0-76.8-33.28-76.8-76.8h153.6c0 43.52-33.28 76.8-76.8 76.8z m-256-128v-332.8c0-140.8 115.2-256 256-256s256 115.2 256 256v332.8h-512z" p-id="9315"></path></svg>