<?xml version="1.0" standalone="no"?><!DOCTYPE svg PUBLIC "-//W3C//DTD SVG 1.1//EN" "http://www.w3.org/Graphics/SVG/1.1/DTD/svg11.dtd"><svg t="1564018403688" class="icon" viewBox="0 0 1170 1024" version="1.1" xmlns="http://www.w3.org/2000/svg" p-id="1109" xmlns:xlink="http://www.w3.org/1999/xlink" width="228.515625" height="200"><defs><style type="text/css"></style></defs><path d="M1087.556603 114.240983c-4.388258-3.949432-4.388258-3.949432-8.703378-3.949432-4.388258 0-4.388258-3.949432-8.703379-3.949433-12.945361-3.949432-30.27898-7.898864-47.612599-11.848296h-212.318548v-51.196343c0-23.623455-21.648739-43.297479-47.685737-43.297479H407.376616c-26.036997 0-47.685737 19.747161-47.685737 43.297479v55.145775H164.632812C73.649596 98.443254 0 165.437326 0 248.082851v626.204414c0 55.145775 34.667238 106.342118 82.352975 129.965574h8.63024c17.333619 11.775159 34.667238 19.674023 56.315978 19.674023h857.904435c90.983215 0 164.632812-66.920934 164.632812-149.639597V248.082851c4.388258-55.145775-30.352118-106.342118-82.352975-133.841868z m-632.640526-3.949432c0-7.898864 13.018499-11.848297 26.036998-11.848297h212.318548c12.945361 0 25.96386 7.898864 25.96386 11.848297v23.623455c0 7.825727-13.018499 11.775159-25.96386 11.775159H480.953075c-13.018499 0-26.036997-7.825727-26.036998-11.775159v-23.623455z m-21.648739 137.7913c108.316835 0 194.98493 78.769231 194.98493 173.33619 0 98.443254-86.668095 177.212485-194.98493 177.212485-108.243697 0-190.669809-78.769231-190.669809-177.212485-4.31512-94.56696 82.352975-173.33619 190.669809-173.33619zM134.280694 870.337833c0-149.639597 134.353832-271.706307 298.986644-271.706307h4.388258c164.559674 0 298.913506 122.06671 298.913506 271.706307H134.280694z m909.905293-354.42497H797.2002c-12.945361 0-25.96386-11.848297-25.96386-23.623455 0-11.848297 13.018499-23.623455 25.96386-23.623456h246.985787c13.018499 0 25.96386 11.775159 25.963859 23.623456 0 11.775159-12.945361 23.623455-25.963859 23.623455z m0-145.690165H797.2002c-12.945361 0-25.96386-11.848297-25.96386-23.696593 0-11.775159 13.018499-23.623455 25.96386-23.623455h246.985787c13.018499 0 25.96386 11.848297 25.963859 23.623455 0 11.848297-12.945361 23.696593-25.963859 23.696593z" fill="#d81e06" p-id="1110"></path></svg>