<?xml version="1.0" standalone="no"?><!DOCTYPE svg PUBLIC "-//W3C//DTD SVG 1.1//EN" "http://www.w3.org/Graphics/SVG/1.1/DTD/svg11.dtd"><svg t="1563930481680" class="icon" viewBox="0 0 1365 1024" version="1.1" xmlns="http://www.w3.org/2000/svg" p-id="3356" xmlns:xlink="http://www.w3.org/1999/xlink" width="266.6015625" height="200"><defs><style type="text/css"></style></defs><path d="M857.518 99.143h-351.028c-52.886 0-95.734 42.879-95.734 95.731v638.207c0 52.854 42.851 95.732 95.734 95.732h351.029c52.887 0 95.736-42.879 95.736-95.732v-638.207c-0.001-52.851-42.851-95.731-95.737-95.731zM650.092 131.052h63.825c8.818 0 15.955 7.138 15.955 15.956s-7.137 15.956-15.955 15.956h-63.825c-8.82 0-15.954-7.138-15.954-15.956s7.134-15.956 15.954-15.956zM682.005 889.828c-22.531 0-40.794-18.258-40.794-40.794 0-22.526 18.263-40.789 40.794-40.789s40.791 18.261 40.791 40.789c0.002 22.536-18.26 40.794-40.791 40.794zM889.432 753.305c0 8.82-7.136 15.955-15.957 15.955h-382.942c-8.819 0-15.956-7.137-15.956-15.955v-542.474c0-8.82 7.137-15.954 15.956-15.954h382.94c8.823 0 15.957 7.136 15.957 15.954v542.474h0.002z" fill="#cccccc" p-id="3357"></path></svg>