<?xml version="1.0" standalone="no"?><!DOCTYPE svg PUBLIC "-//W3C//DTD SVG 1.1//EN" "http://www.w3.org/Graphics/SVG/1.1/DTD/svg11.dtd"><svg t="1550196650892" class="icon" style="" viewBox="0 0 1024 1024" version="1.1" xmlns="http://www.w3.org/2000/svg" p-id="4548" xmlns:xlink="http://www.w3.org/1999/xlink" width="128" height="128"><defs><style type="text/css"></style></defs><path d="M670.172 542.912l-47.611 48.115-34.674-30.877-42.097-40.831 75.506-80.794c84.788 36.95 172.749 21.963 231.949-29.332 58.127-50.449 58.127-149.636 58.127-149.636l-46.543-18.166-89.456 90.553-130.454-129.331 90.075-91.141-18.39-46.428c0 0-90.127 0-150.225 59.646-55.849 55.401-73.536 146.542-34.196 228.938l-78.349 76.435-112.766-109.421-6.692-76.633-105.569-68.054-29.78 29.808-29.726 29.835-29.808 29.808 67.941 105.764 71.851 6.273 115.61 110.153-295.419 288.19c0 0-8.521 52.955 25.985 87.515 27.813 27.839 78.291 22.133 78.291 22.133l286.727-306.806 41.563 39.625 30.877 30.736-59.194 60.797c84.927 85.012 169.827 170.080 254.752 255.148 87.457-23.567 137.882-84.281 166.535-166.82-85.011-85.123-169.939-170.191-254.839-255.201v0M210.609 822.669c-13.609 13.694-35.743 13.861-49.523 0.253-13.724-13.637-13.837-35.855-0.253-49.664 13.582-13.809 35.771-13.947 49.55-0.253 13.695 13.668 13.894 35.827 0.225 49.664v0M765.923 899.437l-193.167-193.477 28.628-28.657 200.028 200.452-35.488 21.681M833.98 845.079l-200.028-200.366 28.655-28.741 193.139 193.477-21.766 35.63M833.98 845.079v0z" p-id="4549"></path></svg>