<?xml version="1.0" standalone="no"?><!DOCTYPE svg PUBLIC "-//W3C//DTD SVG 1.1//EN" "http://www.w3.org/Graphics/SVG/1.1/DTD/svg11.dtd"><svg t="1565028673356" class="icon" viewBox="0 0 1024 1024" version="1.1" xmlns="http://www.w3.org/2000/svg" p-id="3634" xmlns:xlink="http://www.w3.org/1999/xlink" width="200" height="200"><defs><style type="text/css"></style></defs><path d="M881.06666698 444.00000031l-71.60000062-29.60000062-0.79999969-0.39999938c-5.59999969-17.59999969-12.79999969-34.8-21.19999969-50.80000031l0.79999969-1.60000031 29.20000031-70.39999969c4.8-11.59999969 1.99999969-24.79999969-6.80000062-33.6l-55.99999969-55.99999969c-8.80000031-8.80000031-22.00000031-11.59999969-33.6-6.80000062L649.86666636 224l-0.79999969 0.40000031c-16.39999969-8.4-33.19999969-15.6-50.80000031-21.20000062 0-0.40000031-0.40000031-0.79999969-0.39999938-1.2l-29.60000062-70.8c-4.8-11.59999969-16.00000031-19.2-28.39999969-19.2h-79.2c-12.40000031 0-23.59999969 7.60000031-28.39999969 19.2L402.66666636 202.80000031l-0.39999938 0.79999969c-17.59999969 5.59999969-34.8 12.79999969-50.80000031 21.19999969l-1.60000031-0.79999969L278.66666698 194.40000031c-11.59999969-4.8-24.79999969-1.99999969-33.6 6.79999969l-56.00000062 55.99999969c-8.80000031 8.80000031-11.59999969 22.00000031-6.79999969 33.6l29.59999969 71.60000062c0 0.40000031 0.40000031 0.79999969 0.40000031 0.79999969-8.4 16.39999969-15.6 33.6-21.19999969 51.19999969l-1.2 0.40000031-70.8 29.20000031c-11.59999969 4.8-19.2 16.00000031-19.2 28.39999969v79.2c0 12.40000031 7.60000031 23.59999969 19.2 28.39999969l71.59999969 29.60000062 0.79999969 0.39999938c5.59999969 17.20000031 12.79999969 34.39999969 21.20000062 50.80000031-0.40000031 0.40000031-0.40000031 1.2-0.80000062 1.60000031L182.66666698 733.20000031c-4.8 11.59999969-1.99999969 24.79999969 6.79999969 33.6l55.99999969 55.99999969c8.80000031 8.80000031 22.00000031 11.59999969 33.6 6.79999969l71.20000031-29.59999969 0.79999969-0.40000031c16.39999969 8.4 33.6 15.6 51.20000062 21.20000062l0.39999938 1.2 29.60000062 70.8c4.8 11.59999969 16.00000031 19.2 28.39999969 19.2h79.2c12.40000031 0 23.59999969-7.60000031 28.39999969-19.2l29.60000062-71.60000062 0.39999938-0.79999969c17.59999969-5.59999969 34.8-12.79999969 50.80000031-21.19999969l1.60000031 0.79999969 70.39999969 29.20000031c11.59999969 4.8 24.79999969 1.99999969 33.6-6.80000062l55.99999969-55.99999969c8.80000031-8.80000031 11.59999969-22.00000031 6.80000062-33.6l-29.60000062-71.20000031c0-0.40000031-0.40000031-0.79999969-0.39999938-0.79999969 8.4-16.39999969 15.6-33.6 21.19999969-51.19999969 0.40000031 0 0.79999969-0.40000031 1.2-0.40000031l70.8-29.59999969c11.59999969-4.8 19.2-16.00000031 19.2-28.40000062V471.99999969c0-12-7.2-23.20000031-18.79999969-27.99999938z m-381.20000062 183.19999969c-63.6 0-115.2-51.6-115.2-115.2s51.6-115.2 115.2-115.2 115.2 51.6 115.2 115.2-51.6 115.2-115.2 115.2z" fill="#ffffff" p-id="3635"></path></svg>