<?xml version="1.0" standalone="no"?><!DOCTYPE svg PUBLIC "-//W3C//DTD SVG 1.1//EN" "http://www.w3.org/Graphics/SVG/1.1/DTD/svg11.dtd"><svg t="1550132484114" class="icon" style="" viewBox="0 0 1024 1024" version="1.1" xmlns="http://www.w3.org/2000/svg" p-id="7753" xmlns:xlink="http://www.w3.org/1999/xlink" width="128" height="128"><defs><style type="text/css"></style></defs><path d="M727.994867 524.597923l-62.613036 142.114718L514.511705 1009.603105 363.702977 666.712641l-64.793702-147.273205c-89.025593 64.143902-146.978493 168.261215-146.978493 286.290375l0 85.605703c96.747461 81.242326 221.735104 130.293485 358.041536 130.293485 136.191822 0 261.060761-49.052183 357.868597-130.293485l0-85.605703C867.839893 691.119517 812.89142 589.006861 727.994867 524.597923z" p-id="7754"></path><path d="M717.496769 429.824419c5.074575-1.62194 11.086499-10.787694 16.272615-25.204032C713.373869 509.531785 620.809683 589.006861 510.091022 589.006861c-108.360963 0-199.389166-76.231195-222.2662-177.812755-0.471744-2.534729-0.943488-4.983501-1.297552-7.398504 4.598738 14.529925 10.200316 23.904433 15.211447 25.674753-10.731412-29.184693-7.782244-75.084069-3.77293-111.104447l-25.882484 0c0.294712 6.277984 0.766456 12.732999 1.238201 19.277042-0.708128 7.752568-1.061169 15.594163-1.061169 23.435759 0 131.208321 106.711394 237.948367 237.830687 237.948367 131.23595 0 237.832733-106.740046 237.832733-237.948367 0-8.696056-0.472767-17.33276-1.296529-25.850761 0.232291-5.368264 0.469698-11.113105 0.585331-16.863063l-21.579481 0C725.874577 350.055654 736.719576 383.012254 717.496769 429.824419z" p-id="7755"></path><path d="M754.05336 249.89035l2.12336 0c-13.796214-43.717687-65.209164-177.903829-193.791681-211.889875l0 41.004903 0 195.675588-13.384845 0L549.000194 76.085886 549.000194 34.902928c0 0-0.176009-0.085958-0.292666-0.085958-8.312316-19.692504-25.882484-33.224706-46.044686-33.224706-20.045545 0-37.319977 13.05841-45.74895 32.133861-0.356111 0.084934-0.827855 0.205685-1.180895 0.205685l0 39.825031 0 197.945281 0 2.977821-13.382798 0L442.350199 262.829034 442.350199 76.32227 442.350199 36.910655c-136.719848 33.189913-169.97116 181.820022-175.512363 212.979696l0.825808 0c-19.574824 0-35.492352 15.388479-35.492352 34.254152 0 18.924002 15.917528 34.222429 35.492352 34.222429l4.420683 0 25.882484 0 427.66729 0 21.579481 0 6.840802 0c19.455097 0 35.374672-15.298428 35.374672-34.222429C789.428032 265.278829 773.508457 249.89035 754.05336 249.89035z" p-id="7756"></path></svg>