<?xml version="1.0" standalone="no"?><!DOCTYPE svg PUBLIC "-//W3C//DTD SVG 1.1//EN" "http://www.w3.org/Graphics/SVG/1.1/DTD/svg11.dtd"><svg t="1565028615222" class="icon" viewBox="0 0 1024 1024" version="1.1" xmlns="http://www.w3.org/2000/svg" p-id="2816" xmlns:xlink="http://www.w3.org/1999/xlink" width="200" height="200"><defs><style type="text/css"></style></defs><path d="M895.81985945 709.65195716L632.19329507 709.65195716C613.98658499 709.65195716 599.23997424 694.90534563 599.23997424 676.69863632 586.37170268 663.83036478 581.14860104 648.17753748 587.59097526 641.75164017L680.79944244 548.543173C687.22534052 542.10079875 702.87816705 547.32389966 715.74643936 560.19217197 728.6147109 573.06044352 733.83781179 588.71327082 727.39543756 595.13916812L678.7892902 643.74531549 895.81985945 643.74531549C914.02656876 643.74531549 928.77317951 658.491927 928.77317951 676.69863632 928.77317951 694.90534563 914.02656876 709.65195716 895.81985945 709.65195716ZM796.95989771 528.40869372C796.95989771 528.40869372 796.95989771 528.40869372 796.95989771 528.40869372L796.95989771 544.88535451 792.39586269 544.88535451C786.67846124 554.68896733 776.16635256 561.36201456 764.00657686 561.36201456 751.84680196 561.36201456 741.33469251 554.68896733 735.61729106 544.88535451L731.05325681 544.88535451 731.05325681 485.43756399C671.04525959 511.52011693 575.38177035 528.40869372 467.42669242 528.40869372 359.4716145 528.40869372 263.80812449 511.52011693 203.80012805 485.43756399L203.80012805 610.79199542 225.40102979 610.79199542C249.07799066 629.59186449 352.1065468 643.74531549 475.66502205 643.74531549 489.70313696 643.74531549 503.42819506 643.54759558 516.8566733 643.18510957L516.8566733 643.74531549 516.8566733 643.74531549C535.0633826 643.74531549 549.80999336 658.491927 549.80999336 676.69863632 549.80999336 694.90534563 535.0633826 709.65195716 516.8566733 709.65195716 514.03916447 709.65195716 511.36994482 709.19061042 508.75015591 708.53154378 495.17338852 709.12470353 481.51423653 709.65195716 467.42669242 709.65195716 359.4716145 709.65195716 263.80812449 692.76338037 203.80012805 666.68082667L203.80012805 808.51191811 137.89348715 808.51191811 137.89348715 215.35214924 139.17866661 215.35214924C152.16227503 160.07295388 293.99336649 116.4921875 467.42669242 116.4921875 640.86001837 116.4921875 782.69110983 160.07295388 795.67471825 215.35214924L796.95989771 215.35214924 796.95989771 223.59047887C796.95989771 223.59047887 796.95989771 223.59047887 796.95989771 223.59047887 796.95989771 223.59047887 796.95989771 223.59047887 796.95989771 223.59047887L796.95989771 528.40869372C796.95989771 528.40869372 796.95989771 528.40869372 796.95989771 528.40869372ZM731.05325681 223.59047887C731.03677989 200.83621146 616.70523462 182.39882841 475.66502205 182.39882841 334.62481026 182.39882841 220.27678808 200.83621146 220.27678808 223.59047887 220.27678808 246.34474705 334.62481026 264.78213011 475.66502205 264.78213011 616.70523462 264.78213011 731.03677989 246.34474705 731.05325681 223.59047887L731.05325681 223.59047887ZM731.05325681 287.65173439C670.94639963 313.73428733 575.39824728 330.68877101 467.42669242 330.68877101 359.45513758 330.68877101 263.90698445 313.73428733 203.80012805 287.65173439L203.80012805 429.54873275 225.40102979 429.54873275C249.07799066 448.34860182 352.1065468 462.50205282 475.66502205 462.50205282 599.22349808 462.50205282 702.25205424 448.34860182 725.9290151 429.54873275L731.05325681 429.54873275 731.05325681 287.65173439ZM475.66502205 841.46523897C489.70313696 841.46523897 503.42819506 841.26751905 516.8566733 840.90503228L516.8566733 841.46523897 516.8566733 841.46523897C535.0633826 841.46523897 549.80999336 856.21184972 549.80999336 874.4185598 549.80999336 892.62526911 535.0633826 907.37187987 516.8566733 907.37187987 514.07211754 907.37187987 511.40289866 906.92701005 508.81606281 906.26794417 495.20634158 906.84462702 481.53071346 907.37187987 467.42669242 907.37187987 293.99336649 907.37187987 152.16227503 863.79111347 139.17866661 808.51191811L225.40102979 808.51191811C249.07799066 827.31178796 352.1065468 841.46523897 475.66502205 841.46523897ZM615.71663426 742.60527723L881.40278163 742.60527723C899.60949094 742.60527723 914.35610169 757.35188876 914.35610169 775.55859807 914.35610169 775.69041108 914.32314863 775.80574797 914.32314863 775.93756098 927.22437324 788.8552625 932.46395182 804.49161365 925.97214761 810.93398788L831.64326706 904.73561404C825.13498669 911.2109421 809.3009164 905.95488738 796.267878 893.00423203 783.25131651 880.05357745 777.97878487 864.30189018 784.487066 857.82656289L834.08181296 808.51191811 615.71663426 808.51191811C597.50992495 808.51191811 582.76331419 793.76530737 582.76331419 775.55859807 582.76331419 757.35188876 597.50992495 742.60527723 615.71663426 742.60527723Z" p-id="2817" fill="#ffffff"></path></svg>