<?xml version="1.0" standalone="no"?><!DOCTYPE svg PUBLIC "-//W3C//DTD SVG 1.1//EN" "http://www.w3.org/Graphics/SVG/1.1/DTD/svg11.dtd"><svg t="1563929168321" class="icon" viewBox="0 0 1137 1024" version="1.1" xmlns="http://www.w3.org/2000/svg" p-id="2628" xmlns:xlink="http://www.w3.org/1999/xlink" width="222.0703125" height="200"><defs><style type="text/css"></style></defs><path d="M857.258667 957.667556H94.435556c-19.626667 0-32.654222-14.392889-32.654223-36.010667V95.232L449.763556 522.808889c19.569778 21.617778 42.382222 32.312889 68.437333 32.312889 26.055111 0 52.110222-10.695111 68.437333-30.549334l394.638222-423.992888v123.960888c0 21.617778 16.327111 35.953778 32.654223 35.953778 19.626667 0 31.004444-14.336 31.004444-35.953778V102.343111C1044.935111 41.244444 1000.903111 0 948.792889 0H94.435556C39.082667 0 0 41.244444 0 102.343111V921.6C0 982.755556 42.382222 1024 94.492444 1024h762.88c19.683556 0 32.711111-8.931556 32.711112-30.549333-0.170667-21.447111-13.198222-35.84-32.824889-35.84zM915.911111 66.332444L544.426667 472.405333a29.582222 29.582222 0 0 1-45.738667 0L130.275556 66.332444H915.911111z m189.155556 354.816h-166.229334a32.768 32.768 0 0 0-32.654222 34.133334c0 21.617778 13.027556 34.133333 32.654222 34.133333h166.229334c16.327111 0 32.654222-12.515556 32.654222-34.133333-0.170667-21.617778-13.198222-34.133333-32.654222-34.133334z m-320.284445 143.758223a32.768 32.768 0 0 0-32.654222 34.133333c0 21.617778 13.084444 34.190222 32.654222 34.190222h222.435556c16.384 0 32.711111-12.515556 32.711111-34.133333-0.170667-21.617778-13.198222-34.190222-32.654222-34.190222h-222.435556zM574.577778 708.494222a32.768 32.768 0 0 0-32.654222 34.133334c0 21.617778 13.084444 32.369778 32.654222 32.369777h334.961778c16.327111 0 32.654222-10.752 32.654222-32.369777-0.170667-21.617778-13.198222-34.133333-32.654222-34.133334H574.577778z" fill="#00CC66" p-id="2629"></path></svg>