<?xml version="1.0" standalone="no"?><!DOCTYPE svg PUBLIC "-//W3C//DTD SVG 1.1//EN" "http://www.w3.org/Graphics/SVG/1.1/DTD/svg11.dtd"><svg t="1565028654721" class="icon" viewBox="0 0 1059 1024" version="1.1" xmlns="http://www.w3.org/2000/svg" p-id="3317" xmlns:xlink="http://www.w3.org/1999/xlink" width="206.8359375" height="200"><defs><style type="text/css"></style></defs><path d="M624.46437765 925.38181662L624.46437765 867.42005524C785.63800776 829.28509802 905.69562867 684.84472699 905.69562867 512 905.69562867 339.18339609 785.63800776 194.74302506 624.46437765 156.57994476L624.46437765 118.27624827 624.46437765 98.64630728C816.99529178 137.73745078 961.94187903 307.93860437 961.94187903 512 961.94187903 716.08951871 816.99529178 886.29067229 624.46437765 925.38181662ZM146.37125037 680.7387511C115.29519712 680.7387511 90.125 655.56855399 90.125 624.49250073L90.125 399.50749927C90.125 368.45956909 115.29519712 343.2612489 146.37125037 343.2612489L286.98687627 343.2612489 540.0950021 90.15312308 540.0950021 933.84687692 286.98687627 680.7387511 146.37125037 680.7387511ZM483.84875173 793.25937409L483.84875173 230.79687208 315.11000064 399.53562235 146.37125037 399.53562235 146.37125037 624.52062381 315.11000064 624.52062381 483.84875173 793.25937409ZM765.08000275 497.93843741C765.08000275 594.8507269 707.31510373 678.0670538 624.46437765 715.61142556L624.46437765 651.57507041C675.08600265 619.06473773 708.83375238 562.59350192 708.83375238 497.93843741 708.83375238 433.31149597 675.08600265 376.84026099 624.46437765 344.32992832L624.46437765 280.29357233C707.31510373 317.83794409 765.08000275 401.05427099 765.08000275 497.93843741Z" p-id="3318" fill="#ffffff"></path></svg>