<?xml version="1.0" standalone="no"?><!DOCTYPE svg PUBLIC "-//W3C//DTD SVG 1.1//EN" "http://www.w3.org/Graphics/SVG/1.1/DTD/svg11.dtd"><svg t="1565028733974" class="icon" viewBox="0 0 1024 1024" version="1.1" xmlns="http://www.w3.org/2000/svg" p-id="4579" xmlns:xlink="http://www.w3.org/1999/xlink" width="200" height="200"><defs><style type="text/css"></style></defs><path d="M127.17948739 48.98461531h73.84615406V992H127.17948739zM937.6410252 497.23076938c-30.64615406-25.84615406-160.24615406-145.84615406-160.24615312-187.56923063 0-27.69230813 111.50769187-188.67692344 147.32307656-240.36923063 2.95384594-4.43076938-1.84615406-9.96923062-6.64615406-7.75384687-35.81538469 15.50769187-116.67692344 48.36923063-170.21538469 48.36923063-70.52307656 0-151.38461531-38.76923062-151.38461531-38.76923063S500.8410252 32 425.14871802 32C349.82564146 32 274.87179458 93.29230813 274.87179458 93.29230813V526.76923062c0 5.53846125 6.27692344 9.23076937 11.44615406 6.27692344 21.78461531-12.18461531 74.58461531-36.18461531 155.07692344-36.18461531 108.55384594 0 106.70769188 42.83076938 255.13846125 42.83076938 70.89230812 0 205.29230813-23.26153875 239.26153875-33.96923157 4.06153875-1.10769187 4.8-5.90769188 1.84615312-8.49230718z" p-id="4580" fill="#ffffff"></path></svg>